/* XPM */
static const char *adolf[] = {
/* columns rows colors chars-per-pixel */
"63 64 61 1 ",
"  c black",
". c #00001C",
"X c gray11",
"o c #28200C",
"O c #302410",
"+ c #382C14",
"@ c #202020",
"# c #282828",
"$ c #2C2C2C",
"% c gray19",
"& c gray22",
"* c #400000",
"= c #4C0000",
"- c #580000",
"; c #640000",
": c #700000",
"> c #7C0000",
", c #403018",
"< c #483818",
"1 c #543C1C",
"2 c #5C4020",
"3 c #6C4824",
"4 c #744C28",
"5 c gray25",
"6 c #484848",
"7 c gray33",
"8 c #646464",
"9 c gray44",
"0 c #7C7C7C",
"q c #880000",
"w c #9C4C00",
"e c #80502C",
"r c #885830",
"t c #905C34",
"y c #9C6038",
"u c #A0643C",
"i c #A86840",
"p c #B47044",
"a c #BC7848",
"s c #C87C4C",
"d c #D08050",
"f c #DC8854",
"g c #E88C58",
"h c #F0945C",
"j c #FC9C60",
"k c #FCA470",
"l c gray55",
"z c #989898",
"x c #FCB080",
"c c #FCBC9C",
"v c #FCC4A4",
"b c #FCCCB0",
"n c #FCD4BC",
"m c #9C9CFC",
"M c #B8BCFC",
"N c #FCD8C4",
"B c #FCD8D8",
"V c #FCE8DC",
"C c #D8D8FC",
"Z c #ECECEC",
"A c gray99",
/* pixels */
"    XX#@&#&67568zmMmmCCCCAAmAAMAAAAAmAAAACAMZMmMm8l78886X##@@XX",
"X .XX@X#&56780zmlm8ClC9AAACAAmAAMAAMAMAZCZCZzMMzmlzl08567%##XXX",
" XXXX---------------,,<222222<,O=;;;----------------------&X@XX",
"X .XX------------=-,<1222222222<+OO===--------------------@#@@X",
" XXXX=---------=-11224ruuuyr44431,+OO==-----------------==X##XX",
"  XX#===--------23eetphhhhhaaaaat3,,,OO--------------=====X%XXX",
"XXX@X--------:-3rrphxvnnNZVVVVVVxxpu2,,OO-;;-;-;--=-=-=-==X###X",
"XXXXX---;---;:2ydcvbNNNNNNVVVVNNnvcxdye1Oo=-;------------=X%##@",
"XXX#@;-;-;-;-:tsjvbbbnnnnnBNNNNNbccxxhay1oOo=;-;-;-;-;-;--X%#XX",
"XXX@@;;;;;;::ysxcvvvvbnnnnnnbbvvvbvccxhay2ooo*=-;;;;;;;;;-X##@#",
"XX@X@;;;;::>rdxccvvvvvbnnnnbvccvvvvccxhsir2ooo*=-:;:;:;;--X#%@X",
"XXX#@;;;;;::pjxcccccccvbcbvvcxxxxccvvvhhair3,oo*=;:;;;;;;=X&X%#",
"XXX@#:;:;::edxxkjxxxxxcbcbcxhdiiaxxcbbxhpttr3<Oo*;;;;;;:;-X@%XX",
"XXXX#::::>>ifjxjjxxxxxxkgggue2212trtypxaueeet1,Oo-;;;;:;:;X&###",
"XXXX#>:>>>efhxxjjjjgdggkxse1,++11ee4214er424r31+o*=;;:::;:X@#X#",
"XXX@@;>>>>ifjjjjxitrygkkgy<O++<4ipy41<,++<<1431+oo*-::::;;X&%#X",
"XXX#@::q>4dfhjjpe2114akkfy,++,3421<++++,,+,<2221ooo*;>;:;:X@###",
"XXXX#:>>qudfhsie1,,,+ykkfi,+,<<<3OO+OOOO+,+<112<oooo;;::::X##X@",
"XXX#@>:>wpfffddp3121,ykkfi+OoO3ft321,++OO+,+111,oooo-;:>:>X%%@@",
"XX#XX:>qrpddfdsye3<<+tkkft+o1rdffffae221<,,,11,Ooooo*;>>>:X@X@@",
"XX @#>>2ysddsi2,,2<<1pkkdt21edfffaputtte43332<,Oooooo-:>::X#@#X",
"X #XX:>2usddi<1O,y3ysdkksy4rypdffhhhhhhfspy42<+Oooooo=::::X@%X#",
"XXXX@>21iaai2+<epsddggggpersprrsffhhhfdsppue2<+Oooooo*::::X#X#X",
"XXX#@:11pap4<4paasggggsr2<22323pdddddaaappy42<OOoooooo;:::X##X#",
"XXXX#><1paa4rapaggggaa2<+oooooo2ddddappiite32,OOoooooo->:>X###X",
"XXXXX:+1papypaagggape1+ooooooooo,aapppuyrr31<,OOoooooo*:::XXX@#",
"X XX#:+1idpaddgggai3<oooooooooooo2pppiyte42<,+Ooooooooo:::X#@XX",
"XXX@X:+1iaaadgggdp4,oooooooooooooo3piutee2<++Oooooooooo;::XXX#@",
"XXXXX>+1iadddggdp4<ooooooooooooooooertr43<++Ooooooooooo-::X@#XX",
"XXX@@:,<iadddgddu1+ooooooooooooooooo3e332<++Ooooooooooo-::XX@#@",
"XXXXX:<<ypdddgdpe,OoooooOooooooooooo+3331<+OOoooooooooo=::X#X X",
"XXXX@:1<epdpdddp3OOOooOoooooooooooooo14421+OOooooooooooo=:XX@@X",
"XXXXX:><3uaadddp<oooooooOoooooooooooo,4r41,Oooooooooooooo:XXXXX",
"X XX ::<3uaaaaat+ooooOooooooooooooooo+2re2,Oooooooooooooo: X#XX",
"XXX X>:<2uaaaaar,o<ooooOooooooooooooo+1re2,Oooooooooooooo> X XX",
"X XX :>1<uuaaaatOo31u3oo@67&@X@ooooooo1er2,Oooooooooooooo: XXXX",
"XXXXX::2<uuaaaau2outt1o@oooooooooooooO14e2,Oooooooooooooo: XXXX",
"XXX X:::,ruiaaau2OupuOoooooooooooooooO<3e2,OoooooooOooooo; @ XX",
" X XX:::,ruiaaau32pprooooooooooooooooo<23<Oooooooooooooo*; XXXX",
"X X  ::3eruiiaaar4ppeoooo*******oooOOO132,Oooooooooooooo*; XX X",
"   XX::e<4uiiiaauupp3  ******-*** O+OO3e3,Oooooooooooooo-: X XX",
"XXXXX::4,2tiiiiauuip3  **********o,,+<rrr<Ooooooooooooo*:: XX X",
"    X::3++tyiiiaityi3 *****ooooo+<<+<euur<Ooooooooooooo-:: X XX",
" X XX::2++4tiiiiuttitO +2423rtte2,++1tttt<Ooooooooooo*-::: XXX ",
"X X  ::2<+4tiiiiaitiit23ttitttt3<+oO1tttt<Ooooooooooo-:::: XXX ",
" X   ::2323tiiiiiutiippppppitre1+ooO<4tt4,oooooooooo;;:::: XX  ",
"   X ::2334riiiiiiuippppppiiiit3<OOO<4tt2Ooooooooooo::::::    X",
"XXX  :::2eeeyiiiiiiuppppppppiiit31+<2ttt1oooooooooo*::::::   X ",
"X   X:::222eryiiiiiipppiiiippiite323ert3+oooooooooo*:::::: XX  ",
" X X ::::1124tyiiiiipiiiippppiite44eee3<Oooooooooo*-::::::   XX",
"   X ::::<<O2ettiiiiipiipppppitte44441+ooooooooooo*;:::::: X X ",
" X  X::::,Oo34ryttiiiiiiiiiiiptre322<Oooooooooooo**:::::::     ",
"  X  ::::::>13eryttiiiiiiiiiptte32<Oooooooooooooo*-::::::: X   ",
" X  X:::::::>13etteettiiiiiitre31,ooooooooooooooo*-:::::::     ",
"     ::::::::113etteetttteee321,Ooooooooooooooooo*=:::::::     ",
"     ::::::::>112etteeee4321,Ooooooooooooooooooooo=:::::::     ",
"     ::>:::>::<112eeeee1,OoooooooooooooooooooooooO2>::::::     ",
"     ::::::::::<1114442<OooooXXXooooooooooooooooooee::::::     ",
"     ::::>:>:>:<11112221Oooooooooooooooooooooooootee:>::::     ",
"     :::::::::>><111111<$oooooooooooooooooooooo,ttte::::::     ",
"     :;;;:::::::,,11111,,oooooooooooooooooooo1etttt2::::::     ",
"                                                               ",
"                     X  X   X X X XX  XXX X       X            ",
"                                                               "
};
